<?xml version="1.0" encoding="UTF-8" standalone="no" ?>
<!DOCTYPE svg PUBLIC "-//W3C//DTD SVG 1.1//EN" "http://www.w3.org/Graphics/SVG/1.1/DTD/svg11.dtd">
<svg xmlns="http://www.w3.org/2000/svg" xmlns:xlink="http://www.w3.org/1999/xlink" version="1.1" width="422.45387756347657" height="98.87024000000002" xml:space="preserve">
<desc>Created with Fabric.js 1.6.0-rc.1</desc>
<defs></defs>
  <g transform="translate(246.19 54.93) scale(1.18 1.32)">
   <text font-family="Choda Chado" font-size="40" font-weight="bold" style="stroke: none; stroke-width: 1; stroke-dasharray: none; stroke-linecap: butt; stroke-linejoin: miter; stroke-miterlimit: 10; fill: #006699; fill-rule: nonzero; opacity: 1;" ><tspan x="-141.4" y="8.98" style="stroke: none; stroke-width: 0; stroke-dasharray: none; stroke-linecap: butt; stroke-linejoin: miter; stroke-miterlimit: 4; fill: #006699; fill-rule: ; opacity: 1;">K</tspan><tspan x="-117.24" y="8.98" style="stroke: none; stroke-width: 0; stroke-dasharray: none; stroke-linecap: butt; stroke-linejoin: miter; stroke-miterlimit: 4; fill: #006699; fill-rule: ; opacity: 1;">a</tspan><tspan x="-93.56" y="8.98" style="stroke: none; stroke-width: 0; stroke-dasharray: none; stroke-linecap: butt; stroke-linejoin: miter; stroke-miterlimit: 4; fill: #006699; fill-rule: ; opacity: 1;">u</tspan><tspan x="-69.4" y="8.98" style="stroke: none; stroke-width: 0; stroke-dasharray: none; stroke-linecap: butt; stroke-linejoin: miter; stroke-miterlimit: 4; fill: #006699; fill-rule: ; opacity: 1;">s</tspan><tspan x="-44.2" y="8.98" style="stroke: none; stroke-width: 0; stroke-dasharray: none; stroke-linecap: butt; stroke-linejoin: miter; stroke-miterlimit: 4; fill: #006699; fill-rule: ; opacity: 1;">t</tspan><tspan x="-27.28" y="8.98" style="stroke: none; stroke-width: 0; stroke-dasharray: none; stroke-linecap: butt; stroke-linejoin: miter; stroke-miterlimit: 4; fill: #006699; fill-rule: ; opacity: 1;">u</tspan><tspan x="-3.12" y="8.98" style="stroke: none; stroke-width: 0; stroke-dasharray: none; stroke-linecap: butt; stroke-linejoin: miter; stroke-miterlimit: 4; fill: #006699; fill-rule: ; opacity: 1;">b</tspan><tspan x="20.72" y="8.98" style="stroke: none; stroke-width: 0; stroke-dasharray: none; stroke-linecap: butt; stroke-linejoin: miter; stroke-miterlimit: 4; fill: #006699; fill-rule: ; opacity: 1;">h</tspan><tspan x="44.88" y="8.98" style="stroke: none; stroke-width: 0; stroke-dasharray: none; stroke-linecap: butt; stroke-linejoin: miter; stroke-miterlimit: 4; fill: #006699; fill-rule: ; opacity: 1;"> </tspan><tspan x="54.88" y="8.98" style="stroke: none; stroke-width: 0; stroke-dasharray: none; stroke-linecap: butt; stroke-linejoin: miter; stroke-miterlimit: 4; fill: #006699; fill-rule: ; opacity: 1;">A</tspan><tspan x="79.04" y="8.98" style="stroke: none; stroke-width: 0; stroke-dasharray: none; stroke-linecap: butt; stroke-linejoin: miter; stroke-miterlimit: 4; fill: #006699; fill-rule: ; opacity: 1;">g</tspan><tspan x="102.76" y="8.98" style="stroke: none; stroke-width: 0; stroke-dasharray: none; stroke-linecap: butt; stroke-linejoin: miter; stroke-miterlimit: 4; fill: #006699; fill-rule: ; opacity: 1;">r</tspan><tspan x="118.8" y="8.98" style="stroke: none; stroke-width: 0; stroke-dasharray: none; stroke-linecap: butt; stroke-linejoin: miter; stroke-miterlimit: 4; fill: #006699; fill-rule: ; opacity: 1;">o</tspan></text>
 </g>
<g style="stroke: none; stroke-width: 1; stroke-dasharray: none; stroke-linecap: butt; stroke-linejoin: miter; stroke-miterlimit: 10; fill: none; fill-rule: nonzero; opacity: 1;" transform="translate(10 9.999999999999996) scale(1.05 1.05)" >
  <path d="M 2.807 37.614 c 0 -7.738 5.367 -14 12 -14 h 2 c 6.633 0 12 6.262 12 14 c 0 7.18 -5.82 13 -13 13 S 2.807 44.793 2.807 37.614 z" style="stroke: none; stroke-width: 1; stroke-dasharray: none; stroke-linecap: butt; stroke-linejoin: miter; stroke-miterlimit: 10; fill: #D13834; fill-rule: nonzero; opacity: 1;" transform=" matrix(1 0 0 1 0 0) " stroke-linecap="round" />
  <path d="M 13.764 47.386 c -0.072 0 -0.146 -0.008 -0.219 -0.024 c -3.556 -0.796 -6.448 -3.395 -7.548 -6.784 c -0.17 -0.525 0.117 -1.089 0.643 -1.26 c 0.527 -0.169 1.09 0.117 1.26 0.643 c 0.869 2.678 3.257 4.817 6.082 5.449 c 0.539 0.121 0.878 0.655 0.758 1.194 C 14.634 47.069 14.222 47.386 13.764 47.386 z" style="stroke: none; stroke-width: 1; stroke-dasharray: none; stroke-linecap: butt; stroke-linejoin: miter; stroke-miterlimit: 10; fill: #ED3F32; fill-rule: nonzero; opacity: 1;" transform=" matrix(1 0 0 1 0 0) " stroke-linecap="round" />
  <path d="M 6.735 36.212 c -0.065 0 -0.132 -0.006 -0.199 -0.02 c -0.541 -0.109 -0.892 -0.637 -0.783 -1.178 c 0.273 -1.354 0.77 -2.627 1.476 -3.785 c 0.288 -0.471 0.904 -0.619 1.375 -0.333 c 0.471 0.288 0.62 0.903 0.333 1.375 c -0.584 0.958 -0.996 2.014 -1.222 3.139 C 7.619 35.884 7.201 36.212 6.735 36.212 z" style="stroke: none; stroke-width: 1; stroke-dasharray: none; stroke-linecap: butt; stroke-linejoin: miter; stroke-miterlimit: 10; fill: #ED3F32; fill-rule: nonzero; opacity: 1;" transform=" matrix(1 0 0 1 0 0) " stroke-linecap="round" />
  <path d="M 28.807 44.614 c 0 -7.738 5.367 -14 12 -14 h 2 c 6.633 0 12 6.262 12 14 c 0 7.18 -5.82 13 -13 13 S 28.807 51.793 28.807 44.614 z" style="stroke: none; stroke-width: 1; stroke-dasharray: none; stroke-linecap: butt; stroke-linejoin: miter; stroke-miterlimit: 10; fill: #ED3F32; fill-rule: nonzero; opacity: 1;" transform=" matrix(1 0 0 1 0 0) " stroke-linecap="round" />
  <path d="M 23.807 33.614 c -3.309 0 -6 -2.691 -6 -6 c 0 -0.552 0.448 -1 1 -1 s 1 0.448 1 1 c 0 2.206 1.794 4 4 4 c 0.552 0 1 0.448 1 1 S 24.359 33.614 23.807 33.614 z" style="stroke: none; stroke-width: 1; stroke-dasharray: none; stroke-linecap: butt; stroke-linejoin: miter; stroke-miterlimit: 10; fill: #ED3F32; fill-rule: nonzero; opacity: 1;" transform=" matrix(1 0 0 1 0 0) " stroke-linecap="round" />
  <path d="M 47.807 40.614 c -3.309 0 -6 -2.691 -6 -6 c 0 -0.552 0.448 -1 1 -1 s 1 0.448 1 1 c 0 2.206 1.794 4 4 4 c 0.552 0 1 0.448 1 1 S 48.359 40.614 47.807 40.614 z" style="stroke: none; stroke-width: 1; stroke-dasharray: none; stroke-linecap: butt; stroke-linejoin: miter; stroke-miterlimit: 10; fill: #ED7161; fill-rule: nonzero; opacity: 1;" transform=" matrix(1 0 0 1 0 0) " stroke-linecap="round" />
  <path d="M 45.806 36.614 c -0.164 0 -0.331 -0.041 -0.485 -0.126 c -0.482 -0.268 -0.657 -0.877 -0.388 -1.36 c 4.228 -7.61 3.538 -14.017 -2.958 -24.461 c -1.583 11.013 -11.42 19.919 -19.596 19.919 c -0.552 0 -1 -0.448 -1 -1 s 0.448 -1 1 -1 c 7.853 0 17.816 -9.875 17.816 -20.972 c 0 -0.44 0.289 -0.83 0.71 -0.957 c 0.421 -0.128 0.877 0.036 1.122 0.402 c 7.181 10.772 10.245 18.977 4.654 29.041 C 46.498 36.428 46.157 36.614 45.806 36.614 z" style="stroke: none; stroke-width: 1; stroke-dasharray: none; stroke-linecap: butt; stroke-linejoin: miter; stroke-miterlimit: 10; fill: #4C312C; fill-rule: nonzero; opacity: 1;" transform=" matrix(1 0 0 1 0 0) " stroke-linecap="round" />
  <path d="M 40.807 7.092 c 4.012 2.941 10.148 1.38 13.089 -2.632 C 49.884 1.518 43.748 3.08 40.807 7.092 z" style="stroke: none; stroke-width: 1; stroke-dasharray: none; stroke-linecap: butt; stroke-linejoin: miter; stroke-miterlimit: 10; fill: #88C057; fill-rule: nonzero; opacity: 1;" transform=" matrix(1 0 0 1 0 0) " stroke-linecap="round" />
  <path d="M 29.807 0.11 c 0.757 4.917 6.2 8.151 11.117 7.394 C 40.166 2.587 34.723 -0.647 29.807 0.11 z" style="stroke: none; stroke-width: 1; stroke-dasharray: none; stroke-linecap: butt; stroke-linejoin: miter; stroke-miterlimit: 10; fill: #659C35; fill-rule: nonzero; opacity: 1;" transform=" matrix(1 0 0 1 0 0) " stroke-linecap="round" />
  <path d="M 39.623 54.731 c -0.072 0 -0.146 -0.008 -0.219 -0.024 c -3.556 -0.796 -6.448 -3.396 -7.548 -6.785 c -0.17 -0.525 0.117 -1.089 0.643 -1.26 c 0.526 -0.171 1.09 0.117 1.26 0.643 c 0.869 2.678 3.257 4.817 6.082 5.45 c 0.539 0.121 0.878 0.656 0.758 1.194 C 40.493 54.415 40.08 54.731 39.623 54.731 z" style="stroke: none; stroke-width: 1; stroke-dasharray: none; stroke-linecap: butt; stroke-linejoin: miter; stroke-miterlimit: 10; fill: #ED7161; fill-rule: nonzero; opacity: 1;" transform=" matrix(1 0 0 1 0 0) " stroke-linecap="round" />
</g>
</svg>